<?xml version="1.0" encoding="UTF-8" standalone="no"?>
<!DOCTYPE svg PUBLIC "-//W3C//DTD SVG 1.1//EN" "http://www.w3.org/Graphics/SVG/1.1/DTD/svg11.dtd">
<svg width="100%" height="100%" viewBox="0 0 1500 1500" version="1.1" xmlns="http://www.w3.org/2000/svg" xmlns:xlink="http://www.w3.org/1999/xlink" xml:space="preserve" xmlns:serif="http://www.serif.com/" style="fill-rule:evenodd;clip-rule:evenodd;stroke-linejoin:round;stroke-miterlimit:2;">
    <g id="Fondo" transform="matrix(1.464844,0,0,1.464844,0,105)">
        <g transform="matrix(1.253869,0,0,1.253869,-127.732779,-112.646328)">
            <path d="M804.247,146.725C857.078,212.813 840.631,230.976 842.846,619.497C843.259,692.073 824.829,738.106 764.732,772.852C714.571,801.854 640.453,788.951 471.504,791.735C333.933,794.002 302.095,790.459 287.46,788.831C233.991,782.881 178.857,731.284 168.711,677.457C159.794,630.146 163.945,629.823 162.884,286.491C162.822,266.245 159.682,221.227 180.494,177.497C215.391,104.173 299.189,97.213 311.48,96.192C315.443,95.863 672.146,92.395 716.451,98.835C732.203,101.125 752.971,107.936 768.238,116.949C789.549,129.531 800.834,143.315 804.247,146.725Z" style="fill:url(#_Linear1);"/>
        </g>
        <g transform="matrix(1.253869,0,0,1.253869,-127.732779,-112.646328)">
            <path d="M330.457,262.483C337.317,248.009 334.882,246.495 344.939,236.928C358.051,224.454 360.536,226.588 529.5,226.575C628.244,226.567 646.154,222.398 657.096,247.721C662.166,259.452 694.475,413.073 697.509,427.498C704.047,458.584 711.674,593.116 708.209,601.367C706.093,606.405 630.569,658.612 617.452,660.07C605.569,661.391 440.866,651.994 425.52,651.119C311.393,644.608 309.146,647.182 300.929,637.195C294.302,629.14 302.93,575.098 306.001,484.487C308.055,423.852 313.982,422.979 343.196,331.422C344.232,328.176 337.282,328.548 333.558,327.335C300.764,316.649 323.215,279.088 330.457,262.483ZM476.501,328.607C375.116,328.733 373.829,328.02 372.905,330.677C335.707,437.579 334.82,456.13 334.277,467.49C333.711,479.336 327.21,615.316 327.276,615.569C328.166,618.988 478.99,624.234 596.522,631.06C601.442,631.346 606.848,632.849 606.874,628.498C607.84,466.263 606.861,466.147 621.816,369.547C626.441,339.67 625.118,339.69 627.617,309.455C628.269,301.563 618.812,328.15 613.481,328.291C602.527,328.58 589.902,328.913 476.501,328.607ZM348.468,292.485C346.124,298.149 346.08,298.092 345.936,298.602C345.123,301.498 348.057,300.524 531.499,300.618C596.863,300.652 598.854,301.948 601.289,296.417C617.842,258.803 619.389,258.489 617.314,255.667C615.775,253.575 393.931,254.968 374.507,255.09C363.245,255.161 363.187,258.033 348.468,292.485Z" style="fill:rgb(2,4,5);"/>
        </g>
        <g transform="matrix(1.253869,0,0,1.253869,-127.732779,-112.646328)">
            <path d="M469.497,482.594C474.988,482.347 496.88,484.21 520.183,467.007C543.913,449.49 535.372,431.664 551.351,437.936C552.494,438.385 565.017,443.3 564.708,445.505C559.606,481.93 483.267,533.792 417.782,492.043C393.174,476.355 375.446,446.488 382.665,442.771C400.548,433.563 402.424,437.163 403.198,438.649C417.891,466.853 434.025,479.787 469.497,482.594Z" style="fill:rgb(3,6,7);"/>
        </g>
    </g>
    <defs>
        <linearGradient id="_Linear1" x1="0" y1="0" x2="1" y2="0" gradientUnits="userSpaceOnUse" gradientTransform="matrix(680.927624,0,0,697.505012,162.680946,443.7186)"><stop offset="0" style="stop-color:rgb(0,193,21);stop-opacity:1"/><stop offset="0.2" style="stop-color:rgb(30,211,22);stop-opacity:1"/><stop offset="0.42" style="stop-color:rgb(61,229,23);stop-opacity:1"/><stop offset="1" style="stop-color:rgb(76,237,23);stop-opacity:1"/></linearGradient>
    </defs>
</svg>
