<?xml version="1.0" encoding="UTF-8" standalone="no"?>
<!DOCTYPE svg PUBLIC "-//W3C//DTD SVG 1.1//EN" "http://www.w3.org/Graphics/SVG/1.1/DTD/svg11.dtd">
<svg width="100%" height="100%" viewBox="0 0 1287 316" version="1.1" xmlns="http://www.w3.org/2000/svg" xmlns:xlink="http://www.w3.org/1999/xlink" xml:space="preserve" xmlns:serif="http://www.serif.com/" style="fill-rule:evenodd;clip-rule:evenodd;stroke-linejoin:round;stroke-miterlimit:2;">
    <g id="Mesa-de-trabajo1" serif:id="Mesa de trabajo1" transform="matrix(1,0,0,1,-98.684211,-569.078947)">
        <rect x="98.684" y="569.079" width="1286.184" height="315.789" style="fill:none;"/>
        <g transform="matrix(1.333333,0,0,1.333333,150.017544,592.078981)">
            <g>
                <g>
                    <g transform="matrix(1,0,0,1,0.500015,169.792147)">
                        <g>
                            <path d="M4.523,-164.41L4.523,-136.82L78.023,-136.82L78.023,0L110.137,0L110.137,-136.82L183.633,-136.82L183.633,-164.41L4.523,-164.41Z" style="fill-rule:nonzero;"/>
                        </g>
                    </g>
                </g>
                <g>
                    <g transform="matrix(1,0,0,1,143.416919,169.792147)">
                        <g>
                            <path d="M87.066,-125.512C67.617,-125.512 53.145,-118.051 43.871,-103.352L43.195,-103.352L43.195,-121.441L15.152,-121.441L15.152,0L43.195,0L43.195,-65.133C43.195,-86.391 55.633,-97.02 79.605,-97.02C86.164,-97.02 88.426,-96.793 96.34,-94.758L96.34,-125.062C94.758,-125.512 93.625,-125.512 87.066,-125.512Z" style="fill-rule:nonzero;"/>
                        </g>
                    </g>
                </g>
                <g>
                    <g transform="matrix(1,0,0,1,243.822182,169.792147)">
                        <g>
                            <path d="M75.984,-125.512C40.707,-125.512 18.996,-112.172 14.02,-86.84L43.195,-86.84C46.133,-98.375 57.668,-102.898 75.984,-102.898C97.02,-102.898 107.422,-97.469 107.422,-86.84L107.422,-81.641C76.211,-80.059 53.145,-76.211 36.863,-69.43C16.961,-61.059 7.238,-49.301 7.238,-32.566C7.238,-6.559 31.66,4.07 54.504,4.07C71.238,4.07 87.52,-0.453 107.422,-12.211C107.422,-7.688 108.098,-4.07 109.004,0L137.727,0C135.691,-4.297 135.465,-12.664 135.465,-18.316L135.465,-83.223C135.465,-114.434 113.301,-125.512 75.984,-125.512ZM37.992,-33.922C37.992,-44.551 45.684,-49.754 56.086,-53.145C69.43,-57.441 91.363,-60.609 107.422,-61.285L107.422,-33.469C89.102,-22.391 74.402,-17.641 58.348,-17.641C44.551,-17.641 37.992,-24.199 37.992,-33.922Z" style="fill-rule:nonzero;"/>
                        </g>
                    </g>
                </g>
                <g>
                    <g transform="matrix(1,0,0,1,394.656231,169.792147)">
                        <g>
                            <path d="M74.855,-125.512C34.148,-125.512 7.914,-98.828 7.914,-61.059C7.914,-22.164 34.828,4.07 77.344,4.07C110.137,4.07 134.105,-13.57 140.664,-36.41L109.91,-36.41C104.934,-25.102 91.363,-18.543 76.891,-18.543C55.859,-18.543 39.125,-30.305 36.41,-52.918L142.926,-52.918C142.699,-101.316 116.691,-125.512 74.855,-125.512ZM37.316,-74.629C41.613,-92.723 54.051,-102.898 74.629,-102.898C96.793,-102.898 109.004,-93.398 113.074,-74.629L37.316,-74.629Z" style="fill-rule:nonzero;"/>
                        </g>
                    </g>
                </g>
                <g>
                    <g transform="matrix(1,0,0,1,545.490302,169.792147)">
                        <g>
                            <path d="M100.863,-168.48C42.289,-168.48 8.82,-132.75 8.82,-81.641C8.82,-25.781 48.395,4.07 101.992,4.07C124.836,4.07 143.605,-1.355 163.281,-15.152L169.613,1.809L189.062,1.809L189.062,-84.355L101.316,-84.355L101.316,-58.574L158.984,-58.574C151.293,-35.504 133.43,-24.426 102.219,-24.426C64.68,-24.426 40.934,-47.039 40.934,-83.223C40.934,-116.691 63.098,-140.891 104.707,-140.891C129.359,-140.891 146.32,-132.977 155.137,-113.074L187.93,-113.074C180.695,-149.484 146.32,-168.48 100.863,-168.48Z" style="fill-rule:nonzero;"/>
                        </g>
                    </g>
                </g>
                <g>
                    <g transform="matrix(1,0,0,1,746.526917,169.792147)">
                        <g>
                            <path d="M75.309,-125.512C32.113,-125.512 7.238,-98.602 7.238,-60.836C7.238,-19.223 34.828,4.07 75.309,4.07C116.016,4.07 143.379,-19.223 143.379,-60.836C143.379,-99.281 118.051,-125.512 75.309,-125.512ZM35.73,-61.285C35.73,-87.746 52.016,-101.543 75.082,-101.543C98.828,-101.543 114.883,-87.293 114.883,-61.285C114.883,-35.957 100.184,-19.902 75.309,-19.902C50.43,-19.902 35.73,-35.957 35.73,-61.285Z" style="fill-rule:nonzero;"/>
                        </g>
                    </g>
                </g>
            </g>
        </g>
    </g>
</svg>
